{
	"asset":{
		"version":"2.0",
		"generator":"Created using the official Cinema 4D glTF Exporter 1.000x290161"
	},
	"scenes":[{
		"nodes":[0]
	}],
	"nodes":[{
		"name":"设备7UV.obj.1",
		"translation":[0,
		107.361,
		122.897],
		"mesh":0,
		"rotation":[0,
		0,
		0,
		-1],
		"scale":[1,
		1,
		1]
	}],
	"meshes":[{
		"primitives":[{
			"attributes":{
				"POSITION":1,
				"NORMAL":2,
				"TEXCOORD_0":3
			},
			"indices":0,
			"material":0
		}]
	}],
	"accessors":[{
		"bufferView":0,
		"type":"SCALAR",
		"componentType":5123,
		"count":26472,
		"byteOffset":0,
		"min":[0],
		"max":[10226]
	},
	{
		"bufferView":1,
		"type":"VEC3",
		"componentType":5126,
		"count":10227,
		"byteOffset":0,
		"min":[-104.535,
		-107.367,
		-163.855],
		"max":[104.535,
		107.367,
		163.855]
	},
	{
		"bufferView":1,
		"type":"VEC3",
		"componentType":5126,
		"count":10227,
		"byteOffset":12,
		"min":[-1,
		-1,
		-1],
		"max":[1,
		1,
		1]
	},
	{
		"bufferView":1,
		"type":"VEC2",
		"componentType":5126,
		"count":10227,
		"byteOffset":24,
		"min":[0.002,
		0.002],
		"max":[0.997,
		0.998]
	}],
	"bufferViews":[{
		"buffer":0,
		"byteOffset":0,
		"byteLength":52944,
		"target":34963
	},
	{
		"buffer":0,
		"byteOffset":52944,
		"byteLength":327264,
		"target":34962,
		"byteStride":32
	}],
	"buffers":[{
		"uri":"data:application/octet-stream;base64,",
		"byteLength":380208
	}],
	"images":[{
		"uri":"data:image/jpeg;base64,"
	},
	{
		"uri":"data:image/jpeg;base64,"
	},
	{
		"uri":"data:image/jpeg;base64,"
	}],
	"samplers":[{
		"magFilter":9729,
		"minFilter":9729,
		"wrapS":10497,
		"wrapT":10497
	},
	{
		"magFilter":9729,
		"minFilter":9729,
		"wrapS":10497,
		"wrapT":10497
	},
	{
		"magFilter":9729,
		"minFilter":9729,
		"wrapS":10497,
		"wrapT":10497
	}],
	"textures":[{
		"sampler":0,
		"source":0
	},
	{
		"sampler":1,
		"source":1
	},
	{
		"sampler":2,
		"source":2
	}],
	"materials":[{
		"pbrMetallicRoughness":{
			"baseColorTexture":{
				"index":0
			},
			"baseColorFactor":[1,
			1,
			1,
			1],
			"metallicRoughnessTexture":{
				"index":1
			},
			"metallicFactor":0,
			"roughnessFactor":0.5
		},
		"occlusionTexture":{
			"index":2,
			"strength":1
		},
		"emissiveFactor":[0,
		0,
		0],
		"alphaMode":"OPAQUE",
		"doubleSided":false,
		"name":"default"
	}]
}